# 3ds Max Wavefront OBJ Exporter v0.97b - (c)2007 guruware
# Filchier créé : 14.12.2012 10:09:05

mtllib lampe_asura.mtl

#
# object Bo_te001
#

v  3.4457 -5.4871 1.9262
v  3.4426 -4.1248 -0.0315
v  5.1997 -2.8492 0.9585
v  4.9735 -4.2036 2.5398
v  6.6871 -1.5975 1.5495
v  6.1334 -2.8276 2.4435
v  3.4395 -2.7625 -1.9891
v  5.1966 -1.4869 -0.9991
v  6.9536 -0.2113 -0.0091
v  -0.0746 -5.3138 -3.9690
v  -0.3108 -3.9313 -5.5525
v  1.4463 -2.6557 -4.5625
v  1.6825 -4.0381 -2.9790
v  3.2034 -1.3801 -3.5725
v  4.9604 -0.1045 -2.5826
v  6.7175 1.1712 -1.5926
v  -0.9524 -2.5912 -6.3829
v  0.8047 -1.3156 -5.3929
v  2.5618 -0.0400 -4.4029
v  4.3188 1.2357 -3.4129
v  6.0759 2.5113 -2.4230
v  -4.9036 -2.6484 4.1162
v  -4.4449 -1.3536 5.1207
v  -4.4480 0.0087 3.1631
v  -4.9067 -1.2861 2.1586
v  -3.2584 -0.1026 6.0921
v  -3.2615 1.2597 4.1345
v  -1.7306 1.1808 6.7057
v  -1.5045 2.5353 5.1245
v  -0.5707 2.5569 6.6095
v  -0.0171 3.7870 5.7155
v  -4.4511 1.3709 1.2055
v  -4.9098 0.0762 0.2010
v  -3.2646 2.6220 2.1769
v  -1.5076 3.8976 3.1669
v  0.2495 5.1732 4.1568
v  -4.4541 2.7332 -0.7521
v  -4.9129 1.4384 -1.7566
v  -3.2677 3.9842 0.2193
v  -4.4572 4.0955 -2.7097
v  -4.9160 2.8007 -3.7142
v  -3.2708 5.3465 -1.7383
v  -0.0745 -5.3417 -3.9288
v  1.6825 -4.0661 -2.9388
v  0.0065 -2.7200 -1.8974
v  -1.7506 -3.9956 -2.8873
v  3.4396 -2.7905 -1.9489
v  1.7636 -1.4444 -0.9074
v  3.2975 -2.8575 3.5812
v  1.7697 -4.1410 2.9676
v  4.4574 -1.4814 3.4850
v  -1.6695 -1.3739 -0.8559
v  -3.4266 -2.6495 -1.8459
v  0.0033 -1.3217 -3.9066
v  1.7604 -0.0461 -2.9167
v  0.0843 1.3000 -1.8752
v  -1.6727 0.0244 -2.8652
v  1.6214 -1.5114 4.6227
v  0.0936 -2.7948 4.0091
v  2.7813 -0.1353 4.5265
v  -3.4205 -5.3461 2.0292
v  -1.6634 -4.0705 3.0191
v  -3.3395 -2.7243 4.0606
v  -4.5596 -3.9561 3.1039
v  -1.5824 -1.4487 5.0506
v  -0.0546 -0.1653 5.6642
v  1.1053 1.2108 5.5680
v  5.0110 -0.2513 2.5910
v  5.2776 1.1348 1.0324
v  5.2745 2.4971 -0.9252
v  4.9501 3.9814 -2.4915
v  3.3350 1.0948 3.6325
v  3.6016 2.4810 2.0739
v  3.5985 3.8432 0.1163
v  3.5954 5.2055 -1.8413
v  1.6590 2.4409 4.6740
v  1.9255 3.8271 3.1154
v  3.1930 2.7058 -3.4815
v  1.4360 1.4302 -4.4715
v  -0.3211 0.1546 -5.4614
v  -2.0781 -1.1210 -6.4514
v  1.8383 3.9299 -2.8313
v  0.0813 2.6543 -3.8213
v  -1.6758 1.3787 -4.8113
v  -3.4328 0.1030 -5.8013
v  3.6016 2.4590 2.1054
v  1.8446 1.1834 1.1155
v  0.1685 2.5295 2.1569
v  1.9256 3.8051 3.1469
v  -3.3518 2.7248 -3.7698
v  -1.5948 4.0004 -2.7798
v  -4.5719 1.4931 -4.7266
v  -1.5075 3.8756 3.1984
v  0.2495 5.1512 4.1884
v  -1.5885 1.2539 1.1670
v  -3.2646 2.6000 2.2085
v  -1.7537 -2.6054 -4.8851
v  -1.7506 -3.9676 -2.9275
v  -3.4298 -1.2592 -3.8437
v  -3.4267 -2.6215 -1.8860
v  -4.5689 0.1308 -2.7690
v  -4.5658 -1.2315 -0.8113
v  -3.4236 -3.9838 0.0716
v  -4.5627 -2.5938 1.1463
v  1.7666 -2.7927 1.0301
v  3.4426 -4.1388 -0.0114
v  -3.4235 -3.9978 0.0916
v  -1.6665 -2.7222 1.0816
v  0.0906 -1.4465 2.0716
v  3.5056 -1.5301 2.0099
v  1.8296 -0.1840 3.0514
v  1.8265 1.1643 1.1139
v  3.5026 -0.1818 0.0724
v  -1.5683 -0.1142 3.1024
v  -3.3253 -1.3899 2.1124
v  -3.3284 -0.0416 0.1749
v  -1.5713 1.2341 1.1649
v  1.8415 2.5317 -0.8220
v  3.5986 3.8073 0.1679
v  0.0844 1.2560 -1.8120
v  -1.5916 2.6022 -0.7705
v  -3.2676 3.9483 0.2709
v  -1.5745 2.6323 -0.8444
v  -3.3315 1.3567 -1.8344
v  0.1708 1.1483 4.0822
v  0.1677 2.4966 2.1447
v  1.8234 2.5625 -0.8954
v  3.4994 1.2164 -1.9368
# 128 vertices

vn -0.0313 -0.9995 -0.0031
vn -0.0316 -0.9995 -0.0033
vn -0.0316 -0.9995 -0.0031
vn -0.0302 -0.9995 -0.0017
vn -0.0306 -0.9995 -0.0022
vn -0.0212 -0.9997 0.0075
vn -0.0311 -0.9939 -0.1062
vn -0.0313 -0.9963 -0.0805
vn -0.0313 -0.9959 -0.0850
vn -0.0308 -0.9871 -0.1572
vn -0.0288 -0.9379 -0.3458
vn -0.0288 -0.9381 -0.3451
vn -0.0288 -0.9384 -0.3444
vn -0.0204 -0.7007 -0.7132
vn -0.0204 -0.7006 -0.7132
vn -0.0204 -0.7006 -0.7133
vn -0.6777 0.7353 0.0007
vn -0.3265 0.9452 0.0022
vn -0.0647 0.9979 0.0029
vn -0.0601 0.9982 0.0031
vn 0.0302 0.9995 0.0017
vn 0.0316 0.9995 0.0031
vn 0.0212 0.9997 -0.0075
vn 0.0306 0.9995 0.0022
vn -0.0907 0.9959 0.0030
vn 0.0316 0.9995 0.0033
vn 0.0317 0.9995 0.0034
vn -0.1513 0.9885 0.0028
vn -0.3266 0.9452 0.0022
vn -0.0026 -0.0032 1.0000
vn 0.1417 -0.0078 0.9899
vn 0.3268 -0.0135 0.9450
vn 0.3271 -0.0135 0.9449
vn 0.7243 -0.0252 0.6890
vn 0.7242 -0.0252 0.6891
vn 0.0938 -0.0063 0.9956
vn -0.0028 -0.0030 1.0000
vn -0.0032 -0.0026 1.0000
vn 0.0697 -0.0055 0.9976
vn -0.0031 -0.0027 1.0000
vn -0.0035 -0.0023 1.0000
vn 0.0741 -0.0056 0.9972
vn 0.3273 -0.0135 0.9448
vn 0.7241 -0.0252 0.6892
vn 0.9471 -0.0310 0.3194
vn 0.9470 -0.0310 0.3196
vn 0.9951 -0.0323 0.0931
vn 0.9955 -0.0317 0.0892
vn 0.9993 -0.0365 -0.0022
vn 0.9995 -0.0327 0.0017
vn 0.9979 -0.0597 -0.0257
vn 0.9994 -0.0353 -0.0010
vn 0.9925 -0.0317 0.1181
vn 0.9995 -0.0316 0.0024
vn 0.9995 -0.0321 0.0020
vn 0.9840 -0.0317 0.1753
vn 0.9470 -0.0310 0.3198
vn -0.0077 -0.3179 -0.9481
vn -0.0077 -0.3172 -0.9483
vn -0.0077 -0.3186 -0.9478
vn -0.0013 -0.1177 -0.9930
vn -0.0000 -0.0775 -0.9970
vn 0.0007 -0.0574 -0.9984
vn 0.0005 -0.0617 -0.9981
vn 0.0026 0.0032 -1.0000
vn 0.0029 0.0030 -1.0000
vn 0.0026 0.0031 -1.0000
vn 0.0029 0.0029 -1.0000
vn 0.0029 0.0032 -1.0000
vn 0.0032 0.0026 -1.0000
vn -0.9992 0.0406 0.0062
vn -0.9994 0.0336 0.0026
vn -0.9994 0.0349 0.0003
vn -0.9993 0.0361 -0.0010
vn -0.9995 0.0316 -0.0003
vn -0.9995 0.0321 -0.0019
vn -0.9912 0.1320 -0.0020
vn -0.9907 0.1364 -0.0021
vn -0.9863 0.1652 -0.0020
vn -0.9155 0.4023 -0.0010
vn -0.9730 0.2310 -0.0017
vn -0.9155 0.4022 -0.0010
vn -0.9995 0.0316 -0.0024
# 83 vertex normals

vt 0.5000 0.0000 0.0000
vt 0.5000 0.2500 0.0000
vt 0.2500 0.2500 0.0000
vt 0.2500 0.0000 0.0000
vt 0.0000 0.2500 0.0000
vt 0.0000 0.0000 0.0000
vt 0.5000 0.5000 0.0000
vt 0.2500 0.5000 0.0000
vt 0.0000 0.5000 0.0000
vt 1.0000 0.5000 0.0000
vt 1.0000 0.7500 0.0000
vt 0.7500 0.7500 0.0000
vt 0.7500 0.5000 0.0000
vt 0.5000 0.7500 0.0000
vt 0.2500 0.7500 0.0000
vt 0.0000 0.7500 0.0000
vt 1.0000 1.0000 0.0000
vt 0.7500 1.0000 0.0000
vt 0.5000 1.0000 0.0000
vt 0.2500 1.0000 0.0000
vt 0.0000 1.0000 0.0000
vt 0.7500 0.0000 0.0000
vt 0.7500 0.2500 0.0000
vt 1.0000 0.0000 0.0000
vt 1.0000 0.2500 0.0000
# 25 texture coords

g Bo_te001
usemtl wire_058068073
s 2
f 1/1/1 2/2/2 3/3/3 
f 3/3/3 4/4/4 1/1/1 
f 4/4/4 3/3/3 5/5/5 
f 5/5/5 6/6/6 4/4/4 
f 2/2/2 7/7/7 8/8/8 
f 8/8/8 3/3/3 2/2/2 
f 3/3/3 8/8/8 9/9/9 
f 9/9/9 5/5/5 3/3/3 
f 10/10/10 11/11/11 12/12/12 
f 12/12/12 13/13/10 10/10/10 
f 13/13/10 12/12/12 14/14/12 
f 14/14/12 7/7/7 13/13/10 
f 7/7/7 14/14/12 15/15/12 
f 15/15/12 8/8/8 7/7/7 
f 8/8/8 15/15/12 16/16/13 
f 16/16/13 9/9/9 8/8/8 
f 11/11/11 17/17/14 18/18/15 
f 18/18/15 12/12/12 11/11/11 
f 12/12/12 18/18/15 19/19/15 
f 19/19/15 14/14/12 12/12/12 
f 14/14/12 19/19/15 20/20/15 
f 20/20/15 15/15/12 14/14/12 
f 15/15/12 20/20/15 21/21/16 
f 21/21/16 16/16/13 15/15/12 
s 4
f 22/6/17 23/4/18 24/3/18 
f 24/3/18 25/5/17 22/6/17 
f 23/4/18 26/1/19 27/2/20 
f 27/2/20 24/3/18 23/4/18 
f 26/1/19 28/22/21 29/23/22 
f 29/23/22 27/2/20 26/1/19 
f 28/22/21 30/24/23 31/25/24 
f 31/25/24 29/23/22 28/22/21 
f 25/5/17 24/3/18 32/8/18 
f 32/8/18 33/9/17 25/5/17 
f 24/3/18 27/2/20 34/7/25 
f 34/7/25 32/8/18 24/3/18 
f 27/2/20 29/23/22 35/13/26 
f 35/13/26 34/7/25 27/2/20 
f 29/23/22 31/25/24 36/10/27 
f 36/10/27 35/13/26 29/23/22 
f 33/9/17 32/8/18 37/15/18 
f 37/15/18 38/16/17 33/9/17 
f 32/8/18 34/7/25 39/14/28 
f 39/14/28 37/15/18 32/8/18 
f 38/16/17 37/15/18 40/20/29 
f 40/20/29 41/21/17 38/16/17 
f 37/3/18 39/2/28 42/7/28 
f 42/7/28 40/8/29 37/3/18 
s 8
f 43/6/30 44/4/30 45/3/30 
f 45/3/30 46/5/30 43/6/30 
f 44/4/30 47/1/30 48/2/30 
f 48/2/30 45/3/30 44/4/30 
f 1/1/31 4/22/32 49/23/33 
f 49/23/33 50/2/31 1/1/31 
f 4/22/32 6/24/34 51/25/35 
f 51/25/35 49/23/33 4/22/32 
f 46/5/30 45/3/30 52/8/30 
f 52/8/30 53/9/30 46/5/30 
f 54/3/30 55/2/30 56/7/30 
f 56/7/30 57/8/30 54/3/30 
f 50/2/31 49/23/33 58/13/33 
f 58/13/33 59/7/36 50/2/31 
f 49/23/33 51/25/35 60/10/35 
f 60/10/35 58/13/33 49/23/33 
f 61/9/37 62/8/30 63/15/37 
f 63/15/37 64/16/38 61/9/37 
f 62/8/30 59/7/36 65/14/39 
f 65/14/39 63/15/37 62/8/30 
f 59/7/36 58/13/33 66/12/33 
f 66/12/33 65/14/39 59/7/36 
f 58/13/33 60/10/35 67/11/35 
f 67/11/35 66/12/33 58/13/33 
f 64/16/38 63/15/37 23/20/40 
f 23/20/40 22/21/41 64/16/38 
f 63/15/37 65/14/39 26/19/42 
f 26/19/42 23/20/40 63/15/37 
f 65/14/39 66/12/33 28/18/43 
f 28/18/43 26/19/42 65/14/39 
f 66/12/33 67/11/35 30/17/44 
f 30/17/44 28/18/43 66/12/33 
s 16
f 6/6/34 5/4/45 68/3/46 
f 68/3/46 51/5/35 6/6/34 
f 5/4/45 9/1/47 69/2/48 
f 69/2/48 68/3/46 5/4/45 
f 9/1/47 16/22/49 70/23/50 
f 70/23/50 69/2/48 9/1/47 
f 16/22/49 21/24/51 71/25/52 
f 71/25/52 70/23/50 16/22/49 
f 51/5/35 68/3/46 72/8/46 
f 72/8/46 60/9/35 51/5/35 
f 68/3/46 69/2/48 73/7/53 
f 73/7/53 72/8/46 68/3/46 
f 69/2/48 70/23/50 74/13/54 
f 74/13/54 73/7/53 69/2/48 
f 70/23/50 71/25/52 75/10/55 
f 75/10/55 74/13/54 70/23/50 
f 60/9/35 72/8/46 76/15/46 
f 76/15/46 67/16/35 60/9/35 
f 72/8/46 73/7/53 77/14/56 
f 77/14/56 76/15/46 72/8/46 
f 67/16/35 76/15/46 31/20/57 
f 31/20/57 30/21/44 67/16/35 
f 76/15/46 77/14/56 36/19/56 
f 36/19/56 31/20/57 76/15/46 
s 32
f 21/6/16 20/4/15 78/3/58 
f 78/3/58 71/5/59 21/6/16 
f 20/4/15 19/1/15 79/2/58 
f 79/2/58 78/3/58 20/4/15 
f 19/1/15 18/22/15 80/23/58 
f 80/23/58 79/2/58 19/1/15 
f 18/22/15 17/24/14 81/25/60 
f 81/25/60 80/23/58 18/22/15 
f 71/16/59 78/8/58 82/8/61 
f 82/8/61 75/21/61 71/16/59 
f 78/8/58 79/14/58 83/19/62 
f 83/19/62 82/8/61 78/8/58 
f 79/2/58 80/23/58 84/13/63 
f 84/13/63 83/7/62 79/2/58 
f 80/23/58 81/25/60 85/10/64 
f 85/10/64 84/13/63 80/23/58 
f 86/16/65 87/8/65 88/20/65 
f 88/20/65 89/21/65 86/16/65 
f 83/7/62 84/13/63 90/12/66 
f 90/12/66 91/14/67 83/7/62 
f 84/13/63 85/10/64 92/11/68 
f 92/11/68 90/12/66 84/13/63 
f 89/16/65 88/15/65 93/20/65 
f 93/20/65 94/21/65 89/16/65 
f 88/15/65 95/14/65 96/19/65 
f 96/19/65 93/20/65 88/15/65 
f 91/14/67 90/12/66 40/18/68 
f 40/18/68 42/19/69 91/14/67 
f 90/12/66 92/11/68 41/17/70 
f 41/17/70 40/18/68 90/12/66 
s 64
f 17/6/71 11/4/72 97/3/73 
f 97/3/73 81/5/74 17/6/71 
f 11/4/72 10/1/75 98/2/76 
f 98/2/76 97/3/73 11/4/72 
f 81/5/74 97/3/73 99/8/77 
f 99/8/77 85/9/78 81/5/74 
f 97/3/73 98/2/76 100/7/79 
f 100/7/79 99/8/77 97/3/73 
f 85/9/78 99/8/77 101/15/80 
f 101/15/80 92/16/80 85/9/78 
f 99/8/77 100/7/79 102/14/80 
f 102/14/80 101/15/80 99/8/77 
f 100/7/79 103/13/81 104/12/80 
f 104/12/80 102/14/80 100/7/79 
f 103/13/81 61/10/81 64/11/82 
f 64/11/82 104/12/80 103/13/81 
f 92/16/80 101/15/80 38/20/17 
f 38/20/17 41/21/17 92/16/80 
f 101/15/80 102/14/80 33/19/17 
f 33/19/17 38/20/17 101/15/80 
f 102/14/80 104/12/80 25/18/17 
f 25/18/17 33/19/17 102/14/80 
f 104/12/80 64/11/82 22/17/17 
f 22/17/17 25/18/17 104/12/80 
s off
f 1/8/83 50/7/83 105/7/83 
f 105/7/83 106/8/83 1/8/83 
f 62/8/2 61/9/2 107/9/2 
f 107/9/2 108/8/2 62/8/2 
f 50/2/83 59/7/83 109/7/83 
f 109/7/83 105/2/83 50/2/83 
f 59/7/2 62/7/2 108/7/2 
f 108/7/2 109/7/2 59/7/2 
f 106/1/83 105/2/83 48/2/83 
f 48/2/83 47/1/83 106/1/83 
f 108/8/2 107/9/2 53/9/2 
f 53/9/2 52/8/2 108/8/2 
f 110/2/83 111/7/83 112/7/83 
f 112/7/83 113/2/83 110/2/83 
f 114/7/2 115/8/2 116/8/2 
f 116/8/2 117/7/2 114/7/2 
f 75/7/26 82/7/26 118/7/26 
f 118/7/26 119/7/26 75/7/26 
f 82/8/26 83/7/26 120/7/26 
f 120/7/26 118/8/26 82/8/26 
f 83/7/54 91/14/54 121/14/54 
f 121/14/54 120/7/54 83/7/54 
f 91/14/54 42/19/54 122/19/54 
f 122/19/54 121/14/54 91/14/54 
f 119/16/26 118/8/26 87/8/26 
f 87/8/26 86/16/26 119/16/26 
f 121/14/54 122/19/54 96/19/54 
f 96/19/54 95/14/54 121/14/54 
f 57/8/30 56/7/30 123/7/30 
f 123/7/30 124/8/30 57/8/30 
f 109/7/65 108/8/65 115/8/65 
f 115/8/65 114/7/65 109/7/65 
f 108/8/54 52/8/54 116/8/54 
f 116/8/54 115/8/54 108/8/54 
f 112/7/83 111/7/83 125/7/83 
f 125/7/83 126/7/83 112/7/83 
f 45/3/26 48/2/26 55/2/26 
f 55/2/26 54/3/26 45/3/26 
f 52/8/54 45/3/54 54/3/54 
f 54/3/54 57/8/54 52/8/54 
f 113/2/83 112/7/83 127/7/83 
f 127/7/83 128/2/83 113/2/83 
f 117/7/2 116/8/2 124/8/2 
f 124/8/2 123/7/2 117/7/2 
f 116/8/54 52/8/54 57/8/54 
f 57/8/54 124/8/54 116/8/54 
f 56/7/30 55/2/30 128/2/30 
f 128/2/30 127/7/30 56/7/30 
f 105/2/65 109/7/65 111/7/65 
f 111/7/65 110/2/65 105/2/65 
f 48/2/26 105/2/26 110/2/26 
f 110/2/26 113/2/26 48/2/26 
f 114/7/2 117/7/2 126/7/2 
f 126/7/2 125/7/2 114/7/2 
f 109/7/65 114/7/65 125/7/65 
f 125/7/65 111/7/65 109/7/65 
f 55/2/26 48/2/26 113/2/26 
f 113/2/26 128/2/26 55/2/26 
# 216 faces

#
# object Bo_te002
#

v  -1.6321 5.2319 1.1573
v  0.0414 3.8993 0.1566
v  1.7073 5.2765 1.1085
v  0.0338 6.6091 2.1093
v  -1.6785 6.6124 -0.7584
v  -0.0126 7.9895 0.1935
v  1.6608 6.6569 -0.8073
v  -0.0051 5.2798 -1.7592
# 8 vertices

vn 0.0197 -0.5845 0.8112
vn -0.0197 0.5845 -0.8112
vn -0.7086 0.5642 0.4237
vn 0.7054 0.5831 0.4031
vn 0.7086 -0.5642 -0.4237
vn -0.7054 -0.5831 -0.4031
# 6 vertex normals

vt 1.0000 0.0000 0.0000
vt 1.0000 1.0000 0.0000
vt 0.0000 1.0000 0.0000
vt 0.0000 0.0000 0.0000
# 4 texture coords

g Bo_te002
usemtl wire_058068073
s 2
f 129/26/84 130/27/84 131/28/84 
f 131/28/84 132/29/84 129/26/84 
s 4
f 133/29/85 134/26/85 135/27/85 
f 135/27/85 136/28/85 133/29/85 
s 8
f 129/29/86 132/26/86 134/27/86 
f 134/27/86 133/28/86 129/29/86 
s 16
f 132/29/87 131/26/87 135/27/87 
f 135/27/87 134/28/87 132/29/87 
s 32
f 131/29/88 130/26/88 136/27/88 
f 136/27/88 135/28/88 131/29/88 
s 64
f 130/29/89 129/26/89 133/27/89 
f 133/27/89 136/28/89 130/29/89 
# 12 faces

#
# object Bo_te003
#

v  -1.5854 -6.5426 1.1741
v  0.0881 -7.8752 0.1733
v  1.7540 -6.4980 1.1253
v  0.0805 -5.1654 2.1261
v  -1.6318 -5.1621 -0.7417
v  0.0341 -3.7850 0.2103
v  1.7076 -5.1176 -0.7905
v  0.0416 -6.4947 -1.7424
# 8 vertices

vn 0.0197 -0.5845 0.8112
vn -0.0197 0.5845 -0.8112
vn -0.7086 0.5642 0.4237
vn 0.7054 0.5831 0.4031
vn 0.7086 -0.5642 -0.4237
vn -0.7054 -0.5831 -0.4031
# 6 vertex normals

vt 1.0000 0.0000 0.0000
vt 1.0000 1.0000 0.0000
vt 0.0000 1.0000 0.0000
vt 0.0000 0.0000 0.0000
# 4 texture coords

g Bo_te003
usemtl wire_058068073
s 2
f 137/30/90 138/31/90 139/32/90 
f 139/32/90 140/33/90 137/30/90 
s 4
f 141/33/91 142/30/91 143/31/91 
f 143/31/91 144/32/91 141/33/91 
s 8
f 137/33/92 140/30/92 142/31/92 
f 142/31/92 141/32/92 137/33/92 
s 16
f 140/33/93 139/30/93 143/31/93 
f 143/31/93 142/32/93 140/33/93 
s 32
f 139/33/94 138/30/94 144/31/94 
f 144/31/94 143/32/94 139/33/94 
s 64
f 138/33/95 137/30/95 141/31/95 
f 141/31/95 144/32/95 138/33/95 
# 12 faces

